<svg xmlns="http://www.w3.org/2000/svg" xmlns:xlink="http://www.w3.org/1999/xlink" width="316.605" height="96.313" viewBox="0 0 316.605 96.313"><defs><style>.a,.n{fill:#fff;}.a{opacity:0.4;}.b{opacity:0.8;clip-path:url(#a);}.c{fill:#f8f7ff;}.d{fill:#40327a;}.e{fill:#ddd6ff;}.f{fill:#7760db;}.g{fill:#ab9af7;}.h{fill:#ff95a9;}.i{fill:none;}.j{fill:#2fc2a7;}.k{fill:#ffc359;}.l{fill:#ff809f;}.m{fill:#c4b8ff;}</style><clipPath id="a"><rect className="a" width="316.605" height="96.313" rx="4"/></clipPath></defs><g className="b" transform="translate(0)"><g transform="translate(41.152 6.083)"><path className="c" d="M57.476,189.455s-77.924,4.266-83.3-.909c-6.74-21.1,69.308-8.545,68.876-9.038-3.1-3.538-4.493-7.844-.334-12.071,10.584-10.756,46.609-10.106,43.562-22.095s-10.608-16.005-5.7-25.1c5.89-10.92,23.124-2.06,31.47,1.764,15.516,7.109,32.71,7.9,26.751-2.044s-12.258-13.737-6.6-19.4c7.7-7.711,40.743,14.914,58.864,37.267,10.845,13.378,18.75,4.069,17.652-4.526-.7-5.463-8.38-16.735-.322-21.837,7.768-4.918,25.911,10.322,32.074,19.732,16.138,24.637-2.111,58.263-2.111,58.263Z" transform="translate(26.243 -99.015)"/><path className="d" d="M821.9,402.077l-.356,7.63v0l-.043.937-.067,1.454-.045.962H805.994l.045-.962.467-10.022Z" transform="translate(-622.244 -353.478)"/><path className="e" d="M784.39,464.58l-.045.962h-22.47v-.962Z" transform="translate(-585.2 -405.958)"/><path className="f" d="M822.594,449.667l-.043.937-.067,1.454H807.244l.524-.082Z" transform="translate(-623.294 -393.436)"/><path className="g" d="M801.124,513.135l9.421.033.146-3.7-9.394-.7Z" transform="translate(-618.155 -443.056)"/><path className="h" d="M788.859,443.59l-12.387,2.425.184,1.907h1.611l11.009,0Z" transform="translate(-597.457 -388.334)"/><path className="h" d="M776.651,459.761l-.184-1.907.834-.163v2.07Z" transform="translate(-597.453 -400.173)"/><path className="h" d="M770.345,330.864h-5.32v-5.827a3.209,3.209,0,0,1,3.209-3.209h0a3.345,3.345,0,0,1,3.351,3.054l.216,4.454A1.458,1.458,0,0,1,770.345,330.864Z" transform="translate(-587.845 -286.098)"/><path className="h" d="M771.8,329.338a1.457,1.457,0,0,1-1.456,1.527h-5.32v-5.827a3.21,3.21,0,0,1,3.209-3.209,3.566,3.566,0,0,1,2.358.886,3.2,3.2,0,0,1,.993,2.167Z" transform="translate(-587.848 -286.099)"/><path className="f" d="M794.077,315.3v1.733a1.547,1.547,0,0,1-.048.388h-3.26v-3.869h1.559A1.748,1.748,0,0,1,794.077,315.3Z" transform="translate(-609.461 -279.146)"/><path className="i" d="M806.068,343.638l-.134-2.769Z" transform="translate(-622.194 -302.085)"/><path className="f" d="M3.352,0h0a0,0,0,0,1,0,0V5.486a0,0,0,0,1,0,0H0a0,0,0,0,1,0,0V3.352A3.352,3.352,0,0,1,3.352,0Z" transform="translate(175.577 35.182)"/><path className="f" d="M777.8,316.41H774.33a2.457,2.457,0,0,1-2.454-2.454,1.166,1.166,0,0,1,2.332,0,.122.122,0,0,0,.122.122H777.8Z" transform="translate(-593.598 -278.509)"/><path className="f" d="M785.549,315.882h-1.8a1.166,1.166,0,0,1,0-2.332h1.8a1.166,1.166,0,0,1,0,2.332Z" transform="translate(-602.589 -279.147)"/><path className="f" d="M798.212,322.978a1.758,1.758,0,0,1-1.758,1.758,1.762,1.762,0,1,1,0-3.516A1.758,1.758,0,0,1,798.212,322.978Z" transform="translate(-612.649 -285.587)"/><rect className="f" width="4.858" height="1.822" transform="translate(178.136 36.985)"/><rect className="f" width="3.753" height="2.324" transform="translate(178.276 38.782)"/><path className="f" d="M0,0H5.578a0,0,0,0,1,0,0V.779A2.275,2.275,0,0,1,3.3,3.054H3.054A3.054,3.054,0,0,1,0,0V0A0,0,0,0,1,0,0Z" transform="translate(175.577 40.231)"/><path className="h" d="M0,0H4.009a0,0,0,0,1,0,0V4.079a2,2,0,0,1-2,2H2a2,2,0,0,1-2-2V0A0,0,0,0,1,0,0Z" transform="translate(177.18 43.285)"/><path className="h" d="M790.685,351.646h.874V349.9h-.874a.874.874,0,0,0-.875.874h0A.874.874,0,0,0,790.685,351.646Z" transform="translate(-608.656 -309.666)"/><path className="f" d="M0,0H2.174a0,0,0,0,1,0,0V0A2.091,2.091,0,0,1,.083,2.091H0a0,0,0,0,1,0,0V0A0,0,0,0,1,0,0Z" transform="translate(181.154 38.14)"/><circle className="h" cx="2.005" cy="2.005" r="2.005" transform="translate(177.18 45.36)"/><circle className="j" cx="1.353" cy="1.353" r="1.353" transform="translate(188.379 88.676) rotate(-45)"/><ellipse className="g" cx="1.855" cy="1.855" rx="1.855" ry="1.855" transform="translate(190.541 66.403)"/><path className="g" d="M838.371,544.422l1.6-20.419,3.7.29-2.6,20.34Z" transform="translate(-649.43 -455.853)"/><path className="f" d="M842.428,653.6h-4.07v-1.6h2.708l1.554.848a.4.4,0,0,1,.21.353h0A.4.4,0,0,1,842.428,653.6Z" transform="translate(-649.418 -563.319)"/><ellipse className="g" cx="1.353" cy="1.353" rx="1.353" ry="1.353" transform="matrix(0.973, -0.231, 0.231, 0.973, 180.773, 87.671)"/><ellipse className="g" cx="1.855" cy="1.855" rx="1.855" ry="1.855" transform="translate(182.65 66.403)"/><path className="g" d="M789.164,544.422l1.6-20.419,3.7.29-2.6,20.34Z" transform="translate(-608.114 -455.853)"/><path className="f" d="M793.221,653.6h-4.07v-1.6h2.708l1.554.848a.4.4,0,0,1,.21.353h0A.4.4,0,0,1,793.221,653.6Z" transform="translate(-608.103 -563.319)"/><path className="e" d="M1061.532,510.587l-7.046,24.28h-.81l5.762-24.28Z" transform="translate(-830.208 -444.587)"/><path className="e" d="M1148.615,510.587l7.047,24.28h.81l-5.762-24.28Z" transform="translate(-909.922 -444.587)"/><ellipse className="k" cx="11.867" cy="11.867" rx="11.867" ry="11.867" transform="translate(223.142 50.67)"/><path className="l" d="M1195.27,501.845l-.3-.1a11.65,11.65,0,0,0,.462-1.945l.317.047A12.007,12.007,0,0,1,1195.27,501.845Z" transform="translate(-948.84 -435.529)"/><path className="l" d="M1097.063,525.77a11.9,11.9,0,0,1-5.458-1.307l.146-.286a11.581,11.581,0,0,0,5.313,1.272,11.719,11.719,0,0,0,10.713-6.979l.294.13A12.04,12.04,0,0,1,1097.063,525.77Z" transform="translate(-862.055 -451.206)"/><ellipse className="g" cx="3.729" cy="3.729" rx="3.729" ry="3.729" transform="translate(229.623 57.797)"/><path className="h" d="M983.442,455.761a.8.8,0,1,1,1.03.475A.8.8,0,0,1,983.442,455.761Z" transform="translate(-771.195 -397.647)"/><ellipse className="g" cx="2.085" cy="2.085" rx="2.085" ry="2.085" transform="translate(229.08 47.683)"/><path className="h" d="M970.538,454.727h0a1.122,1.122,0,1,0,.414,2.174l1.806-.666-.3-1.554Z" transform="translate(-759.481 -397.648)"/><ellipse className="h" cx="1.515" cy="1.515" rx="1.515" ry="1.515" transform="translate(221.29 52.21) rotate(-12.885)"/><path className="h" d="M1054.81,397.858l-7.794,4.085,1.229,2.762,8.257-3.046Z" transform="translate(-824.616 -349.936)"/><path className="h" d="M995.842,423.332l-9.774,5.119.651,1.462,10.352-3.819Z" transform="translate(-773.442 -371.325)"/><ellipse className="d" cx="1.042" cy="1.042" rx="1.042" ry="1.042" transform="translate(226.469 87.794)"/><path className="e" d="M1088.681,398.548l.54,11.662h7.457l3.082-12.247a1.283,1.283,0,0,0-1.244-1.6h-7.752A2.085,2.085,0,0,0,1088.681,398.548Z" transform="translate(-859.598 -348.684)"/><path className="e" d="M1092.709,397.727a2.085,2.085,0,1,1-2.677-1.234A2.085,2.085,0,0,1,1092.709,397.727Z" transform="translate(-859.589 -348.68)"/><path className="d" d="M1087.024,482.689h7.457l.4.312a5.552,5.552,0,0,1,2.146,4.385v1.6a2.245,2.245,0,0,1-2.245,2.245h-6.476a2.245,2.245,0,0,1-2.245-2.245v-2.2A9.243,9.243,0,0,1,1087.024,482.689Z" transform="translate(-857.401 -421.163)"/><path className="e" d="M1084.538,406.243l-1.56,4.125-.034-.013a2.062,2.062,0,1,1-3.857-1.459l-.011,0,1.56-4.124Z" transform="translate(-851.424 -355.737)"/><circle className="e" cx="2.085" cy="2.085" r="2.085" transform="translate(236.767 47.683)"/><ellipse className="h" cx="1.515" cy="1.515" rx="1.515" ry="1.515" transform="translate(239.737 58.416) rotate(-54.518)"/><path className="h" d="M1141.611,405.762l2.45,8.452-2.844,1.026-3.52-8.066Z" transform="translate(-900.755 -356.572)"/><path className="e" d="M1137.7,407.173l2.3,5.259,3.215-1.16-1.6-5.511Z" transform="translate(-900.756 -356.571)"/><path className="e" d="M1070.708,401.659l-5.383,1.986-1.39-3.123,5.082-2.664Z" transform="translate(-838.823 -349.935)"/><circle className="d" cx="2.245" cy="2.245" r="2.245" transform="translate(228.661 65.581)"/><circle className="d" cx="2.245" cy="2.245" r="2.245" transform="translate(235.137 65.581)"/><path className="f" d="M1065.673,653h2.085v1.443h-2.921a.447.447,0,0,1-.447-.447h0a.447.447,0,0,1,.224-.387Z" transform="translate(-839.204 -564.159)"/><ellipse className="d" cx="1.814" cy="1.814" rx="1.814" ry="1.814" transform="translate(221.719 66.444)"/><path className="d" d="M1042.96,524.225l4.732,20.341,2.06-.321-3.207-20.579Z" transform="translate(-821.211 -455.569)"/><ellipse className="d" cx="1.042" cy="1.042" rx="1.042" ry="1.042" transform="translate(231.717 87.794)"/><path className="f" d="M1098.4,653h2.085v1.443h-2.921a.447.447,0,0,1-.447-.447h0a.447.447,0,0,1,.224-.387Z" transform="translate(-866.682 -564.159)"/><ellipse className="d" cx="1.814" cy="1.814" rx="1.814" ry="1.814" transform="translate(226.967 66.444)"/><path className="d" d="M1075.686,524.225l4.732,20.341,2.06-.321-3.207-20.579Z" transform="translate(-848.689 -455.569)"/><rect className="h" width="3.528" height="4.344" transform="translate(232.076 43.339)"/><ellipse className="h" cx="1.764" cy="1.764" rx="1.764" ry="1.764" transform="translate(232.076 45.919)"/><ellipse className="d" cx="2.512" cy="2.512" rx="2.512" ry="2.512" transform="translate(234.502 40.364)"/><path className="d" d="M1079.244,316.856a5.541,5.541,0,1,1,5.542,5.541l-2.825-2.825a2.717,2.717,0,0,1-2.717-2.717Z" transform="translate(-851.676 -277.271)"/><path className="h" d="M1126.157,354.53h-.8v-1.6h.8a.8.8,0,0,1,.8.8h0A.8.8,0,0,1,1126.157,354.53Z" transform="translate(-890.393 -312.209)"/><path className="h" d="M1090.123,333.915h6.026v7.779h-3.743a2.6,2.6,0,0,1-2.594-2.759Z" transform="translate(-860.545 -296.246)"/><path className="d" d="M1093.25,328.674h.16v-4.632h-4.774a2.282,2.282,0,0,0-2.282,2.282v.091h.16a6.276,6.276,0,0,1,3.783,1.269h0a4.9,4.9,0,0,0,2.952.99Z" transform="translate(-857.647 -287.957)"/><path className="e" d="M508.124,510.587l7.046,24.28h.81l-5.762-24.28Z" transform="translate(-372.141 -444.587)"/><path className="e" d="M421.042,510.587,414,534.867h-.81l5.762-24.28Z" transform="translate(-292.427 -444.587)"/><ellipse className="h" cx="11.867" cy="11.867" rx="11.867" ry="11.867" transform="translate(120.432 50.67)"/><path className="d" d="M435.222,523.93a11.952,11.952,0,0,1-9.536-4.7l.254-.2a11.71,11.71,0,0,0,20.142-2.759l.3.12A11.979,11.979,0,0,1,435.222,523.93Z" transform="translate(-302.924 -449.366)"/><path className="d" d="M411.731,483.423a12.07,12.07,0,0,1-1.38-8.167l.315.058a11.748,11.748,0,0,0,1.343,7.95Z" transform="translate(-289.878 -414.922)"/><path className="d" d="M460.386,478.117a5.838,5.838,0,0,1-.423,2.189H449.115a5.848,5.848,0,1,1,11.27-2.189Z" transform="translate(-322.24 -412.415)"/><ellipse className="d" cx="1.604" cy="1.604" rx="1.604" ry="1.604" transform="translate(130.695 64.098)"/><circle className="f" cx="2.187" cy="2.187" r="2.187" transform="translate(142.823 54.76) rotate(-12.799)"/><path className="e" d="M502.821,404.187l9.281,4.937,2.409-3.628-8.158-6.628Z" transform="translate(-367.688 -350.783)"/><ellipse className="e" cx="3.207" cy="3.207" rx="3.207" ry="3.207" transform="matrix(0.904, -0.428, 0.428, 0.904, 132.368, 49.045)"/><path className="e" d="M409.477,405.317l-8.642,5.985-2.815-3.322,7.33-7.534Z" transform="translate(-279.693 -352.109)"/><ellipse className="e" cx="3.207" cy="3.207" rx="3.207" ry="3.207" transform="matrix(0.992, -0.128, 0.128, 0.992, 124.368, 47.8)"/><ellipse className="d" cx="2.189" cy="2.189" rx="2.189" ry="2.189" transform="translate(126.558 65.702)"/><ellipse className="d" cx="2.189" cy="2.189" rx="2.189" ry="2.189" transform="translate(133.659 65.702)"/><path className="e" d="M457.048,396.735l-.784,15.982H444.571l-.784-15.982a2.245,2.245,0,0,1,2.242-2.355h8.777A2.245,2.245,0,0,1,457.048,396.735Z" transform="translate(-318.118 -347.015)"/><path className="d" d="M460.384,508.73l-.107,2.189-.005.107a2.189,2.189,0,0,1-2.186,2.082h-7.1a2.189,2.189,0,0,1-2.186-2.082l-.005-.107-.107-2.189Z" transform="translate(-322.239 -443.028)"/><ellipse className="d" cx="1.353" cy="1.353" rx="1.353" ry="1.353" transform="matrix(0.231, -0.973, 0.973, 0.231, 135.068, 89.681)"/><circle className="d" cx="1.855" cy="1.855" r="1.855" transform="translate(134.343 66.403)"/><path className="d" d="M498.9,545.083l-1-20.419h3.709v20.419Z" transform="translate(-363.554 -456.407)"/><path className="h" d="M508.205,653.6h-4.07v-1.6h2.708l1.554.848a.4.4,0,0,1,.21.353h0A.4.4,0,0,1,508.205,653.6Z" transform="translate(-368.792 -563.319)"/><ellipse className="d" cx="1.353" cy="1.353" rx="1.353" ry="1.353" transform="translate(143.413 71.88) rotate(-67.091)"/><path className="d" d="M435.426,491.536a1.855,1.855,0,1,1-2.369,1.125A1.855,1.855,0,0,1,435.426,491.536Z" transform="translate(-309.021 -428.501)"/><path className="d" d="M460.21,501.5l-19.572-5.9,1.244-3.494,19.236,6.848Z" transform="translate(-315.477 -429.066)"/><path className="h" d="M563.736,539.19l1.365-3.834-1.511-.538-.908,2.552.277,1.749a.4.4,0,0,0,.263.316h0A.4.4,0,0,0,563.736,539.19Z" transform="translate(-417.95 -464.933)"/><rect className="h" width="4.009" height="4.344" transform="translate(130.789 42.912) rotate(3.316)"/><path className="h" d="M478.152,384a2,2,0,1,1-1.885-2.117A2,2,0,0,1,478.152,384Z" transform="translate(-343.612 -336.519)"/><path className="d" d="M438.259,500.255l-2.7-3.317,2.675-2.554,3.187,2.86Z" transform="translate(-311.211 -430.983)"/><path className="e" d="M353.028,470.585l-.168,1.6-3.19,29.091h-.81l2.394-30.695Z" transform="translate(-238.417 -411)"/><path className="e" d="M1246.814,470.585l.169,1.6,3.189,29.091h.81l-2.394-30.695Z" transform="translate(-992.375 -411)"/><rect className="f" width="146.548" height="1.604" transform="translate(111.11 59.585)"/><path className="e" d="M398.5,445.9a2.187,2.187,0,1,1-1.726-2.567A2.187,2.187,0,0,1,398.5,445.9Z" transform="translate(-276.457 -388.08)"/><rect className="d" width="7.697" height="0.962" transform="translate(133.95 58.623)"/><path className="m" d="M555.476,402.085l-.4,8.568-.112,2.417H539.57l.512-10.985Z" transform="translate(-398.545 -353.485)"/><ellipse className="n" cx="1.149" cy="1.097" rx="1.149" ry="1.097" transform="translate(147.39 54.111) rotate(-44.332)"/><path className="e" d="M555.077,455.515l-.112,2.417H539.57Z" transform="translate(-398.544 -398.347)"/><rect className="d" width="7.697" height="0.962" transform="translate(224.642 58.623)"/><path className="m" d="M981.59,413.072H966.2l0-.018-.11-2.4-.4-8.568h15.395l.4,8.586Z" transform="translate(-756.326 -353.486)"/><ellipse className="n" cx="1.097" cy="1.149" rx="1.097" ry="1.149" transform="matrix(0.699, -0.715, 0.715, 0.699, 215.723, 54.074)"/><path className="e" d="M983.681,458.026H968.174l.111-.018,15.284-2.381Z" transform="translate(-758.417 -398.441)"/><path className="d" d="M509.314,327.584l-.581.047-.316-3.922.581-.047a1.968,1.968,0,0,1,2.119,1.8h0A1.968,1.968,0,0,1,509.314,327.584Z" transform="translate(-372.387 -287.632)"/><path className="d" d="M0,0H2.915a0,0,0,0,1,0,0V3.054a0,0,0,0,1,0,0h0A2.915,2.915,0,0,1,0,.139V0A0,0,0,0,1,0,0Z" transform="translate(129.298 41.232) rotate(-4.605)"/><path className="d" d="M0,0H.5A2.659,2.659,0,0,1,3.164,2.659v0a2.4,2.4,0,0,1-2.4,2.4H0a0,0,0,0,1,0,0V0A0,0,0,0,1,0,0Z" transform="matrix(0.997, -0.08, 0.08, 0.997, 134.542, 34.962)"/><path className="h" d="M481.325,334.544l-5.158.415-.468-5.808a3.209,3.209,0,0,1,2.941-3.457h0a3.209,3.209,0,0,1,3.44,2.787l.572,4.422A1.457,1.457,0,0,1,481.325,334.544Z" transform="translate(-344.907 -289.336)"/><path className="i" d="M515.9,345.875l-.356-2.749Z" transform="translate(-378.374 -303.98)"/><path className="d" d="M3.352,0h0a0,0,0,0,1,0,0V5.487a0,0,0,0,1,0,0H0a0,0,0,0,1,0,0V3.352A3.352,3.352,0,0,1,3.352,0Z" transform="translate(128.893 36.199) rotate(-4.604)"/><path className="h" d="M471.944,352.307l.872-.07-.07-.872a.875.875,0,0,0-.942-.8h0a.875.875,0,0,0-.8.942h0A.874.874,0,0,0,471.944,352.307Z" transform="translate(-340.97 -310.223)"/><path className="d" d="M486.767,320.431l-3.309.267a2.457,2.457,0,0,1-2.643-2.249,1.166,1.166,0,0,1,2.324-.187.122.122,0,0,0,.131.112l3.309-.267Z" transform="translate(-349.208 -282.203)"/><path className="d" d="M494.453,318.588l-1.646.133a1.166,1.166,0,0,1-.187-2.324l1.646-.133a1.166,1.166,0,0,1,.187,2.324Z" transform="translate(-358.222 -281.423)"/><path className="d" d="M488.11,360.058a1.167,1.167,0,0,1-1.064,1.313l-2.31.186a2.331,2.331,0,0,1-2.511-2.137l-.219-2.721.871-.07h0a.972.972,0,0,0,1.046.891l3.817-.307Z" transform="translate(-350.211 -315.319)"/><path className="h" d="M495.022,455.483a1.283,1.283,0,1,0-.871,1.591A1.283,1.283,0,0,0,495.022,455.483Z" transform="translate(-359.029 -397.545)"/><path className="h" d="M482.405,459.26a.962.962,0,1,1-1.194-.653A.962.962,0,0,1,482.405,459.26Z" transform="translate(-348.963 -400.91)"/><path className="h" d="M487.35,457.4h-2.243l-.27-1.886,2.153-.63Z" transform="translate(-352.588 -397.817)"/><path className="e" d="M408.237,443.549l12.386,2.427-.184,1.907h-12.62Z" transform="translate(-287.921 -388.299)"/><path className="h" d="M483.118,459.732l.184-1.907-.834-.163v2.07Z" transform="translate(-350.599 -400.149)"/><rect className="e" width="1.817" height="1.817" transform="translate(124.899 55.41)"/><path className="d" d="M1060.069,508.074l-7.323.86.214,3.615h7.374Z" transform="translate(-829.427 -442.477)"/><path className="h" d="M1094.542,461.107a.8.8,0,1,0,1.02-.495A.8.8,0,0,0,1094.542,461.107Z" transform="translate(-864.484 -402.59)"/><path className="h" d="M1081.26,458.706a1.114,1.114,0,0,0,.364.061h0l1.924.007.266-1.56-1.818-.631a1.123,1.123,0,1,0-.736,2.121Z" transform="translate(-852.735 -399.193)"/><path className="h" d="M1109.99,454.738l-11.033.006-.1-1.6,10.942-1.426Z" transform="translate(-868.141 -395.161)"/><path className="e" d="M786.336,510.587l7.047,24.28h.81l-5.762-24.28Z" transform="translate(-605.739 -444.587)"/><path className="e" d="M699.254,510.587l-7.046,24.28h-.81l5.762-24.28Z" transform="translate(-526.025 -444.587)"/><path className="g" d="M742.561,478.117a5.81,5.81,0,0,0,.425,2.189H753.83a5.847,5.847,0,1,0-11.269-2.189Z" transform="translate(-568.984 -412.415)"/><ellipse className="d" cx="1.604" cy="1.604" rx="1.604" ry="1.604" transform="translate(177.821 64.098)"/><ellipse className="h" cx="2.187" cy="2.187" rx="2.187" ry="2.187" transform="matrix(0.082, -0.997, 0.997, 0.082, 164.662, 59.394)"/><path className="h" d="M703.35,405.314l-8.644,5.983-2.814-3.323,7.332-7.532Z" transform="translate(-526.44 -352.105)"/><ellipse className="k" cx="3.207" cy="3.207" rx="3.207" ry="3.207" transform="matrix(0.321, -0.947, 0.947, 0.321, 171.017, 52.578)"/><ellipse className="h" cx="1.283" cy="1.283" rx="1.283" ry="1.283" transform="matrix(0.838, -0.546, 0.546, 0.838, 175.284, 58.997)"/><path className="h" d="M771.634,459.743a.962.962,0,1,0,.759-1.129A.962.962,0,0,0,771.634,459.743Z" transform="translate(-593.379 -400.934)"/><path className="h" d="M763.572,461.539l1.992-1.031-.627-1.8-2.2.431Z" transform="translate(-585.923 -401.029)"/><path className="h" d="M842.728,445.938a2.187,2.187,0,1,0,1.726-2.567A2.187,2.187,0,0,0,842.728,445.938Z" transform="translate(-653.054 -388.116)"/><path className="h" d="M794.693,405.326l8.637,5.992,2.818-3.32-7.323-7.54Z" transform="translate(-612.756 -352.119)"/><path className="k" d="M794.691,405.324l7.171,4.975,3.041-3.584-6.08-6.259Z" transform="translate(-612.754 -352.117)"/><path className="k" d="M709.866,405.314l-7.177,4.967-3.037-3.587,6.087-6.253Z" transform="translate(-532.956 -352.105)"/><ellipse className="k" cx="3.207" cy="3.207" rx="3.207" ry="3.207" transform="translate(179.701 48.56) rotate(-18.666)"/><ellipse className="g" cx="2.189" cy="2.189" rx="2.189" ry="2.189" transform="translate(180.787 65.701)"/><ellipse className="g" cx="2.189" cy="2.189" rx="2.189" ry="2.189" transform="translate(173.686 65.702)"/><path className="k" d="M737.66,396.735l.784,15.982h11.694l.784-15.982a2.245,2.245,0,0,0-2.242-2.355H739.9A2.245,2.245,0,0,0,737.66,396.735Z" transform="translate(-564.867 -347.015)"/><path className="g" d="M742.564,508.73l.107,2.189.005.107a2.189,2.189,0,0,0,2.186,2.082h7.1a2.189,2.189,0,0,0,2.186-2.082l.005-.107.107-2.189Z" transform="translate(-568.986 -443.028)"/><path className="d" d="M918.488,586.076a2.342,2.342,0,1,1,2.342-2.342A2.344,2.344,0,0,1,918.488,586.076Zm0-4.363a2.021,2.021,0,1,0,2.021,2.021A2.023,2.023,0,0,0,918.488,581.714Z" transform="translate(-714.733 -504.039)"/><rect className="h" width="15.395" height="10.584" transform="translate(196.058 79.696)"/><rect className="d" width="1.604" height="10.584" transform="translate(209.849 79.696)"/><rect className="d" width="13.791" height="0.321" transform="translate(196.058 84.827)"/><rect className="n" width="2.245" height="1.443" transform="translate(201.831 84.827)"/><rect className="n" width="0.321" height="3.985" transform="matrix(0.917, -0.4, 0.4, 0.917, 237.496, 52.273)"/><rect className="n" width="0.321" height="8.31" transform="matrix(0.192, -0.981, 0.981, 0.192, 123.683, 56.073)"/><rect className="f" width="0.321" height="5.89" transform="translate(128.569 67.725) rotate(-73.214)"/><path className="m" d="M193.453,295.577c-.472,2.185-1.262,4.289-1.893,6.434a23.9,23.9,0,0,0-1.3,6.754,12.054,12.054,0,0,0,3.253,8.142,17.675,17.675,0,0,1,2.365,2.594,3.038,3.038,0,0,1,.156,3.309c-1,1.365-3.137,1.069-4.6,1.922-1.84,1.074-2.1,3.811-1.047,5.665s5.825,7.159,12.641,5.845c3.05-.588,7.185-3.491,7.067-6.6-.123-3.232-3.209-5.851-3.1-9.084.069-2.118,1.493-3.908,2.725-5.632s2.381-3.824,1.814-5.866c-.835-3.006-4.706-3.934-6.581-6.428a10.013,10.013,0,0,1-1.548-5.725,19.979,19.979,0,0,0-.693-5.959C201.09,286.361,195.324,286.909,193.453,295.577Z" transform="translate(-104.845 -257.779)"/><rect className="d" width="0.321" height="34.838" transform="translate(95.611 49.349)"/><path className="d" d="M256.693,442.06l-.317-.052c.519-3.152,4.1-5.112,4.255-5.193l.152.283C260.747,437.116,257.185,439.065,256.693,442.06Z" transform="translate(-160.763 -382.645)"/><path className="d" d="M241.111,535.1c-.35-2.129-2.89-3.519-2.915-3.533l.152-.282c.11.059,2.7,1.477,3.08,3.763Z" transform="translate(-145.499 -461.968)"/><path className="k" d="M0,0H11.546a0,0,0,0,1,0,0V1.522A5.773,5.773,0,0,1,5.773,7.3h0A5.773,5.773,0,0,1,0,1.522V0A0,0,0,0,1,0,0Z" transform="translate(89.971 82.984)"/><path className="d" d="M222.4,634.5a4.121,4.121,0,0,1-2.21-3.657v-1.223h.321v1.223a3.8,3.8,0,0,0,2.039,3.373Z" transform="translate(-130.382 -544.531)"/><rect className="n" width="11.546" height="0.321" transform="translate(89.97 84.027)"/><rect className="m" width="199.449" height="0.321" transform="translate(70.987 90.28)"/><path className="e" d="M746.362,678h0Z" transform="translate(-572.175 -585.155)"/><rect className="m" width="67.234" height="0.321" transform="translate(174.187 92.686)"/><path className="e" d="M1064.39,693.24h0Z" transform="translate(-839.204 -597.95)"/><rect className="m" width="29.254" height="0.321" transform="translate(225.186 95.13)"/><path className="e" d="M674.6,693.24h0Z" transform="translate(-511.921 -597.95)"/><rect className="m" width="53.509" height="0.321" transform="translate(162.679 95.13)"/><path className="e" d="M1225.7,678.234h0Z" transform="translate(-974.649 -585.35)"/><rect className="m" width="6.014" height="0.321" transform="translate(251.054 92.723)"/><path className="e" d="M583.579,678h0Z" transform="translate(-435.496 -585.155)"/><rect className="m" width="20.726" height="0.321" transform="translate(148.083 92.686)"/><path className="n" d="M1080.166,420.161a2.222,2.222,0,0,1-2.125-2.872h0l.051-.166.94-2.485.3.113-.879,2.322h0l-.054.168a1.878,1.878,0,0,0-.133.7,1.9,1.9,0,0,0,2.328,1.854l.072.313A2.236,2.236,0,0,1,1080.166,420.161Z" transform="translate(-850.583 -364.023)"/><rect className="d" width="7.355" height="0.321" transform="translate(94.162 82.824)"/><path className="c" d="M937.67,150.524c-.672-1.539-.887-2.719-.41-3.692,1.415-2.883,8.627-3.345,13.246-.54,6.442,3.912,8.145,14.362,5.2,16.682C952.272,165.674,941.139,158.471,937.67,150.524Z" transform="translate(-732.245 -137.132)"/><path className="n" d="M506.138,365.406a.882.882,0,0,1-1.757.156Z" transform="translate(-368.998 -322.687)"/><path className="n" d="M1097.434,366.988a.882.882,0,1,1-1.764,0Z" transform="translate(-865.468 -324.016)"/><rect className="n" width="5.67" height="0.321" transform="translate(141.114 54.257) rotate(-87.341)"/><rect className="n" width="4.543" height="0.321" transform="translate(189.984 50.183)"/><rect className="n" width="4.998" height="0.321" transform="translate(191.106 51.171)"/><rect className="n" width="4.504" height="0.321" transform="translate(192.535 52.16)"/><rect className="n" width="1.283" height="0.321" transform="translate(193.244 53.149)"/><rect className="n" width="1.737" height="0.321" transform="translate(195.302 53.149)"/><rect className="n" width="1.604" height="0.321" transform="translate(195.436 50.183)"/><path className="c" d="M353.014,480.584h0Z" transform="translate(-241.905 -419.396)"/><rect className="d" width="37.18" height="0.321" transform="translate(111.11 61.028)"/><path className="c" d="M601.2,480.584h0Z" transform="translate(-450.295 -419.396)"/><rect className="d" width="2.435" height="0.321" transform="translate(150.909 61.028)"/><path className="c" d="M631.37,480.584h0Z" transform="translate(-475.623 -419.396)"/><rect className="d" width="9.705" height="0.321" transform="translate(155.747 61.028)"/><path className="c" d="M817.537,480.584h0Z" transform="translate(-623.294 -419.396)"/><rect className="d" width="10.293" height="0.321" transform="translate(183.95 61.028)"/><path className="c" d="M1031.2,480.584h0Z" transform="translate(-811.34 -419.396)"/><rect className="d" width="29.773" height="0.321" transform="translate(219.864 61.028)"/><path className="c" d="M1225.037,480.584h0Z" transform="translate(-974.089 -419.396)"/><rect className="d" width="6.71" height="0.321" transform="translate(250.947 61.028)"/><ellipse className="l" cx="11.867" cy="11.867" rx="11.867" ry="11.867" transform="translate(165.046 50.67)"/><path className="n" d="M755.966,431.708l-.282-.152a11.714,11.714,0,0,0-13.661-16.76l-.091-.307a12.032,12.032,0,0,1,14.034,17.22Z" transform="translate(-568.456 -363.481)"/><path className="k" d="M751.012,434.011h-3.849a.8.8,0,0,1-.8-.8h0a.8.8,0,0,1,.8-.8h3.849a.8.8,0,0,1,.8.8h0A.8.8,0,0,1,751.012,434.011Z" transform="translate(-572.175 -378.944)"/><rect className="d" width="8.278" height="0.321" transform="translate(95.886 90.28)"/><rect className="d" width="2.045" height="0.321" transform="translate(105.607 90.28)"/><rect className="d" width="19.475" height="0.321" transform="translate(131.434 90.28)"/><rect className="d" width="13.599" height="0.321" transform="translate(181.048 90.28)"/><rect className="d" width="13.19" height="0.321" transform="translate(199.539 90.28)"/><rect className="d" width="2.726" height="0.321" transform="translate(214.252 90.28)"/><rect className="d" width="12.116" height="0.321" transform="translate(227.511 90.28)"/><rect className="d" width="2.283" height="0.321" transform="translate(241.421 90.28)"/><rect className="d" width="2.283" height="0.321" transform="translate(126.198 90.28)"/><rect className="d" width="0.321" height="10.997" transform="translate(224.592 48.608) rotate(-2.667)"/></g></g></svg>